<?xml version="1.0" encoding="utf-8" standalone="no"?>
<!DOCTYPE svg PUBLIC "-//W3C//DTD SVG 1.1//EN"
  "http://www.w3.org/Graphics/SVG/1.1/DTD/svg11.dtd">
<!-- Created with matplotlib (https://matplotlib.org/) -->
<svg height="288pt" version="1.1" viewBox="0 0 432 288" width="432pt" xmlns="http://www.w3.org/2000/svg" xmlns:xlink="http://www.w3.org/1999/xlink">
 <defs>
  <style type="text/css">
*{stroke-linecap:butt;stroke-linejoin:round;}
  </style>
 </defs>
 <g id="figure_1">
  <g id="patch_1">
   <path d="M 0 288 
L 432 288 
L 432 0 
L 0 0 
z
" style="fill:#ffffff;"/>
  </g>
  <g id="axes_1">
   <g id="patch_2">
    <path d="M 54 252 
L 388.8 252 
L 388.8 34.56 
L 54 34.56 
z
" style="fill:#ffffff;"/>
   </g>
   <g id="matplotlib.axis_1">
    <g id="xtick_1">
     <g id="line2d_1">
      <path clip-path="url(#p6b7e537b38)" d="M 69.218182 252 
L 69.218182 34.56 
" style="fill:none;stroke:#b0b0b0;stroke-linecap:square;stroke-width:0.8;"/>
     </g>
     <g id="line2d_2">
      <defs>
       <path d="M 0 0 
L 0 3.5 
" id="m48b27bfcb0" style="stroke:#000000;stroke-width:0.8;"/>
      </defs>
      <g>
       <use style="stroke:#000000;stroke-width:0.8;" x="69.218182" xlink:href="#m48b27bfcb0" y="252"/>
      </g>
     </g>
     <g id="text_1">
      <!-- −2.0 -->
      <defs>
       <path d="M 10.59375 35.5 
L 73.1875 35.5 
L 73.1875 27.203125 
L 10.59375 27.203125 
z
" id="DejaVuSans-8722"/>
       <path d="M 19.1875 8.296875 
L 53.609375 8.296875 
L 53.609375 0 
L 7.328125 0 
L 7.328125 8.296875 
Q 12.9375 14.109375 22.625 23.890625 
Q 32.328125 33.6875 34.8125 36.53125 
Q 39.546875 41.84375 41.421875 45.53125 
Q 43.3125 49.21875 43.3125 52.78125 
Q 43.3125 58.59375 39.234375 62.25 
Q 35.15625 65.921875 28.609375 65.921875 
Q 23.96875 65.921875 18.8125 64.3125 
Q 13.671875 62.703125 7.8125 59.421875 
L 7.8125 69.390625 
Q 13.765625 71.78125 18.9375 73 
Q 24.125 74.21875 28.421875 74.21875 
Q 39.75 74.21875 46.484375 68.546875 
Q 53.21875 62.890625 53.21875 53.421875 
Q 53.21875 48.921875 51.53125 44.890625 
Q 49.859375 40.875 45.40625 35.40625 
Q 44.1875 33.984375 37.640625 27.21875 
Q 31.109375 20.453125 19.1875 8.296875 
z
" id="DejaVuSans-50"/>
       <path d="M 10.6875 12.40625 
L 21 12.40625 
L 21 0 
L 10.6875 0 
z
" id="DejaVuSans-46"/>
       <path d="M 31.78125 66.40625 
Q 24.171875 66.40625 20.328125 58.90625 
Q 16.5 51.421875 16.5 36.375 
Q 16.5 21.390625 20.328125 13.890625 
Q 24.171875 6.390625 31.78125 6.390625 
Q 39.453125 6.390625 43.28125 13.890625 
Q 47.125 21.390625 47.125 36.375 
Q 47.125 51.421875 43.28125 58.90625 
Q 39.453125 66.40625 31.78125 66.40625 
z
M 31.78125 74.21875 
Q 44.046875 74.21875 50.515625 64.515625 
Q 56.984375 54.828125 56.984375 36.375 
Q 56.984375 17.96875 50.515625 8.265625 
Q 44.046875 -1.421875 31.78125 -1.421875 
Q 19.53125 -1.421875 13.0625 8.265625 
Q 6.59375 17.96875 6.59375 36.375 
Q 6.59375 54.828125 13.0625 64.515625 
Q 19.53125 74.21875 31.78125 74.21875 
z
" id="DejaVuSans-48"/>
      </defs>
      <g transform="translate(57.076776 266.598437)scale(0.1 -0.1)">
       <use xlink:href="#DejaVuSans-8722"/>
       <use x="83.789062" xlink:href="#DejaVuSans-50"/>
       <use x="147.412109" xlink:href="#DejaVuSans-46"/>
       <use x="179.199219" xlink:href="#DejaVuSans-48"/>
      </g>
     </g>
    </g>
    <g id="xtick_2">
     <g id="line2d_3">
      <path clip-path="url(#p6b7e537b38)" d="M 107.263636 252 
L 107.263636 34.56 
" style="fill:none;stroke:#b0b0b0;stroke-linecap:square;stroke-width:0.8;"/>
     </g>
     <g id="line2d_4">
      <g>
       <use style="stroke:#000000;stroke-width:0.8;" x="107.263636" xlink:href="#m48b27bfcb0" y="252"/>
      </g>
     </g>
     <g id="text_2">
      <!-- −1.5 -->
      <defs>
       <path d="M 12.40625 8.296875 
L 28.515625 8.296875 
L 28.515625 63.921875 
L 10.984375 60.40625 
L 10.984375 69.390625 
L 28.421875 72.90625 
L 38.28125 72.90625 
L 38.28125 8.296875 
L 54.390625 8.296875 
L 54.390625 0 
L 12.40625 0 
z
" id="DejaVuSans-49"/>
       <path d="M 10.796875 72.90625 
L 49.515625 72.90625 
L 49.515625 64.59375 
L 19.828125 64.59375 
L 19.828125 46.734375 
Q 21.96875 47.46875 24.109375 47.828125 
Q 26.265625 48.1875 28.421875 48.1875 
Q 40.625 48.1875 47.75 41.5 
Q 54.890625 34.8125 54.890625 23.390625 
Q 54.890625 11.625 47.5625 5.09375 
Q 40.234375 -1.421875 26.90625 -1.421875 
Q 22.3125 -1.421875 17.546875 -0.640625 
Q 12.796875 0.140625 7.71875 1.703125 
L 7.71875 11.625 
Q 12.109375 9.234375 16.796875 8.0625 
Q 21.484375 6.890625 26.703125 6.890625 
Q 35.15625 6.890625 40.078125 11.328125 
Q 45.015625 15.765625 45.015625 23.390625 
Q 45.015625 31 40.078125 35.4375 
Q 35.15625 39.890625 26.703125 39.890625 
Q 22.75 39.890625 18.8125 39.015625 
Q 14.890625 38.140625 10.796875 36.28125 
z
" id="DejaVuSans-53"/>
      </defs>
      <g transform="translate(95.12223 266.598437)scale(0.1 -0.1)">
       <use xlink:href="#DejaVuSans-8722"/>
       <use x="83.789062" xlink:href="#DejaVuSans-49"/>
       <use x="147.412109" xlink:href="#DejaVuSans-46"/>
       <use x="179.199219" xlink:href="#DejaVuSans-53"/>
      </g>
     </g>
    </g>
    <g id="xtick_3">
     <g id="line2d_5">
      <path clip-path="url(#p6b7e537b38)" d="M 145.309091 252 
L 145.309091 34.56 
" style="fill:none;stroke:#b0b0b0;stroke-linecap:square;stroke-width:0.8;"/>
     </g>
     <g id="line2d_6">
      <g>
       <use style="stroke:#000000;stroke-width:0.8;" x="145.309091" xlink:href="#m48b27bfcb0" y="252"/>
      </g>
     </g>
     <g id="text_3">
      <!-- −1.0 -->
      <g transform="translate(133.167685 266.598437)scale(0.1 -0.1)">
       <use xlink:href="#DejaVuSans-8722"/>
       <use x="83.789062" xlink:href="#DejaVuSans-49"/>
       <use x="147.412109" xlink:href="#DejaVuSans-46"/>
       <use x="179.199219" xlink:href="#DejaVuSans-48"/>
      </g>
     </g>
    </g>
    <g id="xtick_4">
     <g id="line2d_7">
      <path clip-path="url(#p6b7e537b38)" d="M 183.354545 252 
L 183.354545 34.56 
" style="fill:none;stroke:#b0b0b0;stroke-linecap:square;stroke-width:0.8;"/>
     </g>
     <g id="line2d_8">
      <g>
       <use style="stroke:#000000;stroke-width:0.8;" x="183.354545" xlink:href="#m48b27bfcb0" y="252"/>
      </g>
     </g>
     <g id="text_4">
      <!-- −0.5 -->
      <g transform="translate(171.213139 266.598437)scale(0.1 -0.1)">
       <use xlink:href="#DejaVuSans-8722"/>
       <use x="83.789062" xlink:href="#DejaVuSans-48"/>
       <use x="147.412109" xlink:href="#DejaVuSans-46"/>
       <use x="179.199219" xlink:href="#DejaVuSans-53"/>
      </g>
     </g>
    </g>
    <g id="xtick_5">
     <g id="line2d_9">
      <path clip-path="url(#p6b7e537b38)" d="M 221.4 252 
L 221.4 34.56 
" style="fill:none;stroke:#b0b0b0;stroke-linecap:square;stroke-width:0.8;"/>
     </g>
     <g id="line2d_10">
      <g>
       <use style="stroke:#000000;stroke-width:0.8;" x="221.4" xlink:href="#m48b27bfcb0" y="252"/>
      </g>
     </g>
     <g id="text_5">
      <!-- 0.0 -->
      <g transform="translate(213.448438 266.598437)scale(0.1 -0.1)">
       <use xlink:href="#DejaVuSans-48"/>
       <use x="63.623047" xlink:href="#DejaVuSans-46"/>
       <use x="95.410156" xlink:href="#DejaVuSans-48"/>
      </g>
     </g>
    </g>
    <g id="xtick_6">
     <g id="line2d_11">
      <path clip-path="url(#p6b7e537b38)" d="M 259.445455 252 
L 259.445455 34.56 
" style="fill:none;stroke:#b0b0b0;stroke-linecap:square;stroke-width:0.8;"/>
     </g>
     <g id="line2d_12">
      <g>
       <use style="stroke:#000000;stroke-width:0.8;" x="259.445455" xlink:href="#m48b27bfcb0" y="252"/>
      </g>
     </g>
     <g id="text_6">
      <!-- 0.5 -->
      <g transform="translate(251.493892 266.598437)scale(0.1 -0.1)">
       <use xlink:href="#DejaVuSans-48"/>
       <use x="63.623047" xlink:href="#DejaVuSans-46"/>
       <use x="95.410156" xlink:href="#DejaVuSans-53"/>
      </g>
     </g>
    </g>
    <g id="xtick_7">
     <g id="line2d_13">
      <path clip-path="url(#p6b7e537b38)" d="M 297.490909 252 
L 297.490909 34.56 
" style="fill:none;stroke:#b0b0b0;stroke-linecap:square;stroke-width:0.8;"/>
     </g>
     <g id="line2d_14">
      <g>
       <use style="stroke:#000000;stroke-width:0.8;" x="297.490909" xlink:href="#m48b27bfcb0" y="252"/>
      </g>
     </g>
     <g id="text_7">
      <!-- 1.0 -->
      <g transform="translate(289.539347 266.598437)scale(0.1 -0.1)">
       <use xlink:href="#DejaVuSans-49"/>
       <use x="63.623047" xlink:href="#DejaVuSans-46"/>
       <use x="95.410156" xlink:href="#DejaVuSans-48"/>
      </g>
     </g>
    </g>
    <g id="xtick_8">
     <g id="line2d_15">
      <path clip-path="url(#p6b7e537b38)" d="M 335.536364 252 
L 335.536364 34.56 
" style="fill:none;stroke:#b0b0b0;stroke-linecap:square;stroke-width:0.8;"/>
     </g>
     <g id="line2d_16">
      <g>
       <use style="stroke:#000000;stroke-width:0.8;" x="335.536364" xlink:href="#m48b27bfcb0" y="252"/>
      </g>
     </g>
     <g id="text_8">
      <!-- 1.5 -->
      <g transform="translate(327.584801 266.598437)scale(0.1 -0.1)">
       <use xlink:href="#DejaVuSans-49"/>
       <use x="63.623047" xlink:href="#DejaVuSans-46"/>
       <use x="95.410156" xlink:href="#DejaVuSans-53"/>
      </g>
     </g>
    </g>
    <g id="xtick_9">
     <g id="line2d_17">
      <path clip-path="url(#p6b7e537b38)" d="M 373.581818 252 
L 373.581818 34.56 
" style="fill:none;stroke:#b0b0b0;stroke-linecap:square;stroke-width:0.8;"/>
     </g>
     <g id="line2d_18">
      <g>
       <use style="stroke:#000000;stroke-width:0.8;" x="373.581818" xlink:href="#m48b27bfcb0" y="252"/>
      </g>
     </g>
     <g id="text_9">
      <!-- 2.0 -->
      <g transform="translate(365.630256 266.598437)scale(0.1 -0.1)">
       <use xlink:href="#DejaVuSans-50"/>
       <use x="63.623047" xlink:href="#DejaVuSans-46"/>
       <use x="95.410156" xlink:href="#DejaVuSans-48"/>
      </g>
     </g>
    </g>
   </g>
   <g id="matplotlib.axis_2">
    <g id="ytick_1">
     <g id="line2d_19">
      <path clip-path="url(#p6b7e537b38)" d="M 54 242.116364 
L 388.8 242.116364 
" style="fill:none;stroke:#b0b0b0;stroke-linecap:square;stroke-width:0.8;"/>
     </g>
     <g id="line2d_20">
      <defs>
       <path d="M 0 0 
L -3.5 0 
" id="m25b19878b4" style="stroke:#000000;stroke-width:0.8;"/>
      </defs>
      <g>
       <use style="stroke:#000000;stroke-width:0.8;" x="54" xlink:href="#m25b19878b4" y="242.116364"/>
      </g>
     </g>
     <g id="text_10">
      <!-- −2 -->
      <g transform="translate(32.257812 245.915582)scale(0.1 -0.1)">
       <use xlink:href="#DejaVuSans-8722"/>
       <use x="83.789062" xlink:href="#DejaVuSans-50"/>
      </g>
     </g>
    </g>
    <g id="ytick_2">
     <g id="line2d_21">
      <path clip-path="url(#p6b7e537b38)" d="M 54 217.407273 
L 388.8 217.407273 
" style="fill:none;stroke:#b0b0b0;stroke-linecap:square;stroke-width:0.8;"/>
     </g>
     <g id="line2d_22">
      <g>
       <use style="stroke:#000000;stroke-width:0.8;" x="54" xlink:href="#m25b19878b4" y="217.407273"/>
      </g>
     </g>
     <g id="text_11">
      <!-- −1 -->
      <g transform="translate(32.257812 221.206491)scale(0.1 -0.1)">
       <use xlink:href="#DejaVuSans-8722"/>
       <use x="83.789062" xlink:href="#DejaVuSans-49"/>
      </g>
     </g>
    </g>
    <g id="ytick_3">
     <g id="line2d_23">
      <path clip-path="url(#p6b7e537b38)" d="M 54 192.698182 
L 388.8 192.698182 
" style="fill:none;stroke:#b0b0b0;stroke-linecap:square;stroke-width:0.8;"/>
     </g>
     <g id="line2d_24">
      <g>
       <use style="stroke:#000000;stroke-width:0.8;" x="54" xlink:href="#m25b19878b4" y="192.698182"/>
      </g>
     </g>
     <g id="text_12">
      <!-- 0 -->
      <g transform="translate(40.6375 196.497401)scale(0.1 -0.1)">
       <use xlink:href="#DejaVuSans-48"/>
      </g>
     </g>
    </g>
    <g id="ytick_4">
     <g id="line2d_25">
      <path clip-path="url(#p6b7e537b38)" d="M 54 167.989091 
L 388.8 167.989091 
" style="fill:none;stroke:#b0b0b0;stroke-linecap:square;stroke-width:0.8;"/>
     </g>
     <g id="line2d_26">
      <g>
       <use style="stroke:#000000;stroke-width:0.8;" x="54" xlink:href="#m25b19878b4" y="167.989091"/>
      </g>
     </g>
     <g id="text_13">
      <!-- 1 -->
      <g transform="translate(40.6375 171.78831)scale(0.1 -0.1)">
       <use xlink:href="#DejaVuSans-49"/>
      </g>
     </g>
    </g>
    <g id="ytick_5">
     <g id="line2d_27">
      <path clip-path="url(#p6b7e537b38)" d="M 54 143.28 
L 388.8 143.28 
" style="fill:none;stroke:#b0b0b0;stroke-linecap:square;stroke-width:0.8;"/>
     </g>
     <g id="line2d_28">
      <g>
       <use style="stroke:#000000;stroke-width:0.8;" x="54" xlink:href="#m25b19878b4" y="143.28"/>
      </g>
     </g>
     <g id="text_14">
      <!-- 2 -->
      <g transform="translate(40.6375 147.079219)scale(0.1 -0.1)">
       <use xlink:href="#DejaVuSans-50"/>
      </g>
     </g>
    </g>
    <g id="ytick_6">
     <g id="line2d_29">
      <path clip-path="url(#p6b7e537b38)" d="M 54 118.570909 
L 388.8 118.570909 
" style="fill:none;stroke:#b0b0b0;stroke-linecap:square;stroke-width:0.8;"/>
     </g>
     <g id="line2d_30">
      <g>
       <use style="stroke:#000000;stroke-width:0.8;" x="54" xlink:href="#m25b19878b4" y="118.570909"/>
      </g>
     </g>
     <g id="text_15">
      <!-- 3 -->
      <defs>
       <path d="M 40.578125 39.3125 
Q 47.65625 37.796875 51.625 33 
Q 55.609375 28.21875 55.609375 21.1875 
Q 55.609375 10.40625 48.1875 4.484375 
Q 40.765625 -1.421875 27.09375 -1.421875 
Q 22.515625 -1.421875 17.65625 -0.515625 
Q 12.796875 0.390625 7.625 2.203125 
L 7.625 11.71875 
Q 11.71875 9.328125 16.59375 8.109375 
Q 21.484375 6.890625 26.8125 6.890625 
Q 36.078125 6.890625 40.9375 10.546875 
Q 45.796875 14.203125 45.796875 21.1875 
Q 45.796875 27.640625 41.28125 31.265625 
Q 36.765625 34.90625 28.71875 34.90625 
L 20.21875 34.90625 
L 20.21875 43.015625 
L 29.109375 43.015625 
Q 36.375 43.015625 40.234375 45.921875 
Q 44.09375 48.828125 44.09375 54.296875 
Q 44.09375 59.90625 40.109375 62.90625 
Q 36.140625 65.921875 28.71875 65.921875 
Q 24.65625 65.921875 20.015625 65.03125 
Q 15.375 64.15625 9.8125 62.3125 
L 9.8125 71.09375 
Q 15.4375 72.65625 20.34375 73.4375 
Q 25.25 74.21875 29.59375 74.21875 
Q 40.828125 74.21875 47.359375 69.109375 
Q 53.90625 64.015625 53.90625 55.328125 
Q 53.90625 49.265625 50.4375 45.09375 
Q 46.96875 40.921875 40.578125 39.3125 
z
" id="DejaVuSans-51"/>
      </defs>
      <g transform="translate(40.6375 122.370128)scale(0.1 -0.1)">
       <use xlink:href="#DejaVuSans-51"/>
      </g>
     </g>
    </g>
    <g id="ytick_7">
     <g id="line2d_31">
      <path clip-path="url(#p6b7e537b38)" d="M 54 93.861818 
L 388.8 93.861818 
" style="fill:none;stroke:#b0b0b0;stroke-linecap:square;stroke-width:0.8;"/>
     </g>
     <g id="line2d_32">
      <g>
       <use style="stroke:#000000;stroke-width:0.8;" x="54" xlink:href="#m25b19878b4" y="93.861818"/>
      </g>
     </g>
     <g id="text_16">
      <!-- 4 -->
      <defs>
       <path d="M 37.796875 64.3125 
L 12.890625 25.390625 
L 37.796875 25.390625 
z
M 35.203125 72.90625 
L 47.609375 72.90625 
L 47.609375 25.390625 
L 58.015625 25.390625 
L 58.015625 17.1875 
L 47.609375 17.1875 
L 47.609375 0 
L 37.796875 0 
L 37.796875 17.1875 
L 4.890625 17.1875 
L 4.890625 26.703125 
z
" id="DejaVuSans-52"/>
      </defs>
      <g transform="translate(40.6375 97.661037)scale(0.1 -0.1)">
       <use xlink:href="#DejaVuSans-52"/>
      </g>
     </g>
    </g>
    <g id="ytick_8">
     <g id="line2d_33">
      <path clip-path="url(#p6b7e537b38)" d="M 54 69.152727 
L 388.8 69.152727 
" style="fill:none;stroke:#b0b0b0;stroke-linecap:square;stroke-width:0.8;"/>
     </g>
     <g id="line2d_34">
      <g>
       <use style="stroke:#000000;stroke-width:0.8;" x="54" xlink:href="#m25b19878b4" y="69.152727"/>
      </g>
     </g>
     <g id="text_17">
      <!-- 5 -->
      <g transform="translate(40.6375 72.951946)scale(0.1 -0.1)">
       <use xlink:href="#DejaVuSans-53"/>
      </g>
     </g>
    </g>
    <g id="ytick_9">
     <g id="line2d_35">
      <path clip-path="url(#p6b7e537b38)" d="M 54 44.443636 
L 388.8 44.443636 
" style="fill:none;stroke:#b0b0b0;stroke-linecap:square;stroke-width:0.8;"/>
     </g>
     <g id="line2d_36">
      <g>
       <use style="stroke:#000000;stroke-width:0.8;" x="54" xlink:href="#m25b19878b4" y="44.443636"/>
      </g>
     </g>
     <g id="text_18">
      <!-- 6 -->
      <defs>
       <path d="M 33.015625 40.375 
Q 26.375 40.375 22.484375 35.828125 
Q 18.609375 31.296875 18.609375 23.390625 
Q 18.609375 15.53125 22.484375 10.953125 
Q 26.375 6.390625 33.015625 6.390625 
Q 39.65625 6.390625 43.53125 10.953125 
Q 47.40625 15.53125 47.40625 23.390625 
Q 47.40625 31.296875 43.53125 35.828125 
Q 39.65625 40.375 33.015625 40.375 
z
M 52.59375 71.296875 
L 52.59375 62.3125 
Q 48.875 64.0625 45.09375 64.984375 
Q 41.3125 65.921875 37.59375 65.921875 
Q 27.828125 65.921875 22.671875 59.328125 
Q 17.53125 52.734375 16.796875 39.40625 
Q 19.671875 43.65625 24.015625 45.921875 
Q 28.375 48.1875 33.59375 48.1875 
Q 44.578125 48.1875 50.953125 41.515625 
Q 57.328125 34.859375 57.328125 23.390625 
Q 57.328125 12.15625 50.6875 5.359375 
Q 44.046875 -1.421875 33.015625 -1.421875 
Q 20.359375 -1.421875 13.671875 8.265625 
Q 6.984375 17.96875 6.984375 36.375 
Q 6.984375 53.65625 15.1875 63.9375 
Q 23.390625 74.21875 37.203125 74.21875 
Q 40.921875 74.21875 44.703125 73.484375 
Q 48.484375 72.75 52.59375 71.296875 
z
" id="DejaVuSans-54"/>
      </defs>
      <g transform="translate(40.6375 48.242855)scale(0.1 -0.1)">
       <use xlink:href="#DejaVuSans-54"/>
      </g>
     </g>
    </g>
   </g>
   <g id="line2d_37">
    <path clip-path="url(#p6b7e537b38)" d="M 69.218182 143.28 
L 76.351705 152.328739 
L 83.485227 160.943139 
L 90.61875 169.1232 
L 97.752273 176.86892 
L 104.885795 184.180302 
L 112.019318 191.057344 
L 119.152841 197.500046 
L 126.286364 203.508409 
L 131.042045 207.272685 
L 135.797727 210.84392 
L 140.553409 214.222116 
L 145.309091 217.407273 
L 150.064773 220.399389 
L 154.820455 223.198466 
L 159.576136 225.804503 
L 164.331818 228.2175 
L 169.0875 230.437457 
L 173.843182 232.464375 
L 178.598864 234.298253 
L 183.354545 235.939091 
L 188.110227 237.386889 
L 192.865909 238.641648 
L 197.621591 239.703366 
L 202.377273 240.572045 
L 207.132955 241.247685 
L 211.888636 241.730284 
L 216.644318 242.019844 
L 221.4 242.116364 
L 226.155682 242.019844 
L 230.911364 241.730284 
L 235.667045 241.247685 
L 240.422727 240.572045 
L 245.178409 239.703366 
L 249.934091 238.641648 
L 254.689773 237.386889 
L 259.445455 235.939091 
L 264.201136 234.298253 
L 268.956818 232.464375 
L 273.7125 230.437457 
L 278.468182 228.2175 
L 283.223864 225.804503 
L 287.979545 223.198466 
L 292.735227 220.399389 
L 297.490909 217.407273 
L 302.246591 214.222116 
L 307.002273 210.84392 
L 311.757955 207.272685 
L 316.513636 203.508409 
L 321.269318 199.551094 
L 328.402841 193.253171 
L 335.536364 186.520909 
L 342.669886 179.354308 
L 349.803409 171.753366 
L 356.936932 163.718086 
L 364.070455 155.248466 
L 371.203977 146.344506 
L 373.581818 143.28 
L 373.581818 143.28 
" style="fill:none;stroke:#1f77b4;stroke-linecap:square;stroke-width:1.5;"/>
   </g>
   <g id="line2d_38">
    <path clip-path="url(#p6b7e537b38)" d="M 69.218182 118.570909 
L 76.351705 127.619648 
L 83.485227 136.234048 
L 90.61875 144.414109 
L 97.752273 152.15983 
L 104.885795 159.471211 
L 112.019318 166.348253 
L 119.152841 172.790955 
L 126.286364 178.799318 
L 131.042045 182.563594 
L 135.797727 186.13483 
L 140.553409 189.513026 
L 145.309091 192.698182 
L 150.064773 195.690298 
L 154.820455 198.489375 
L 159.576136 201.095412 
L 164.331818 203.508409 
L 169.0875 205.728366 
L 173.843182 207.755284 
L 178.598864 209.589162 
L 183.354545 211.23 
L 188.110227 212.677798 
L 192.865909 213.932557 
L 197.621591 214.994276 
L 202.377273 215.862955 
L 207.132955 216.538594 
L 211.888636 217.021193 
L 216.644318 217.310753 
L 221.4 217.407273 
L 226.155682 217.310753 
L 230.911364 217.021193 
L 235.667045 216.538594 
L 240.422727 215.862955 
L 245.178409 214.994276 
L 249.934091 213.932557 
L 254.689773 212.677798 
L 259.445455 211.23 
L 264.201136 209.589162 
L 268.956818 207.755284 
L 273.7125 205.728366 
L 278.468182 203.508409 
L 283.223864 201.095412 
L 287.979545 198.489375 
L 292.735227 195.690298 
L 297.490909 192.698182 
L 302.246591 189.513026 
L 307.002273 186.13483 
L 311.757955 182.563594 
L 316.513636 178.799318 
L 321.269318 174.842003 
L 328.402841 168.54408 
L 335.536364 161.811818 
L 342.669886 154.645217 
L 349.803409 147.044276 
L 356.936932 139.008995 
L 364.070455 130.539375 
L 371.203977 121.635415 
L 373.581818 118.570909 
L 373.581818 118.570909 
" style="fill:none;stroke:#ff7f0e;stroke-linecap:square;stroke-width:1.5;"/>
   </g>
   <g id="line2d_39">
    <path clip-path="url(#p6b7e537b38)" d="M 69.218182 93.861818 
L 76.351705 102.910558 
L 83.485227 111.524957 
L 90.61875 119.705018 
L 97.752273 127.450739 
L 104.885795 134.76212 
L 112.019318 141.639162 
L 119.152841 148.081864 
L 126.286364 154.090227 
L 131.042045 157.854503 
L 135.797727 161.425739 
L 140.553409 164.803935 
L 145.309091 167.989091 
L 150.064773 170.981207 
L 154.820455 173.780284 
L 159.576136 176.386321 
L 164.331818 178.799318 
L 169.0875 181.019276 
L 173.843182 183.046193 
L 178.598864 184.880071 
L 183.354545 186.520909 
L 188.110227 187.968707 
L 192.865909 189.223466 
L 197.621591 190.285185 
L 202.377273 191.153864 
L 207.132955 191.829503 
L 211.888636 192.312102 
L 216.644318 192.601662 
L 221.4 192.698182 
L 226.155682 192.601662 
L 230.911364 192.312102 
L 235.667045 191.829503 
L 240.422727 191.153864 
L 245.178409 190.285185 
L 249.934091 189.223466 
L 254.689773 187.968707 
L 259.445455 186.520909 
L 264.201136 184.880071 
L 268.956818 183.046193 
L 273.7125 181.019276 
L 278.468182 178.799318 
L 283.223864 176.386321 
L 287.979545 173.780284 
L 292.735227 170.981207 
L 297.490909 167.989091 
L 302.246591 164.803935 
L 307.002273 161.425739 
L 311.757955 157.854503 
L 316.513636 154.090227 
L 321.269318 150.132912 
L 328.402841 143.834989 
L 335.536364 137.102727 
L 342.669886 129.936126 
L 349.803409 122.335185 
L 356.936932 114.299904 
L 364.070455 105.830284 
L 371.203977 96.926325 
L 373.581818 93.861818 
L 373.581818 93.861818 
" style="fill:none;stroke:#2ca02c;stroke-linecap:square;stroke-width:1.5;"/>
   </g>
   <g id="line2d_40">
    <path clip-path="url(#p6b7e537b38)" d="M 69.218182 69.152727 
L 76.351705 78.201467 
L 83.485227 86.815866 
L 90.61875 94.995927 
L 97.752273 102.741648 
L 104.885795 110.053029 
L 112.019318 116.930071 
L 119.152841 123.372773 
L 126.286364 129.381136 
L 131.042045 133.145412 
L 135.797727 136.716648 
L 140.553409 140.094844 
L 145.309091 143.28 
L 150.064773 146.272116 
L 154.820455 149.071193 
L 159.576136 151.67723 
L 164.331818 154.090227 
L 169.0875 156.310185 
L 173.843182 158.337102 
L 178.598864 160.17098 
L 183.354545 161.811818 
L 188.110227 163.259616 
L 192.865909 164.514375 
L 197.621591 165.576094 
L 202.377273 166.444773 
L 207.132955 167.120412 
L 211.888636 167.603011 
L 216.644318 167.892571 
L 221.4 167.989091 
L 226.155682 167.892571 
L 230.911364 167.603011 
L 235.667045 167.120412 
L 240.422727 166.444773 
L 245.178409 165.576094 
L 249.934091 164.514375 
L 254.689773 163.259616 
L 259.445455 161.811818 
L 264.201136 160.17098 
L 268.956818 158.337102 
L 273.7125 156.310185 
L 278.468182 154.090227 
L 283.223864 151.67723 
L 287.979545 149.071193 
L 292.735227 146.272116 
L 297.490909 143.28 
L 302.246591 140.094844 
L 307.002273 136.716648 
L 311.757955 133.145412 
L 316.513636 129.381136 
L 321.269318 125.423821 
L 328.402841 119.125898 
L 335.536364 112.393636 
L 342.669886 105.227035 
L 349.803409 97.626094 
L 356.936932 89.590813 
L 364.070455 81.121193 
L 371.203977 72.217234 
L 373.581818 69.152727 
L 373.581818 69.152727 
" style="fill:none;stroke:#d62728;stroke-linecap:square;stroke-width:1.5;"/>
   </g>
   <g id="line2d_41">
    <path clip-path="url(#p6b7e537b38)" d="M 69.218182 44.443636 
L 76.351705 53.492376 
L 83.485227 62.106776 
L 90.61875 70.286836 
L 97.752273 78.032557 
L 104.885795 85.343938 
L 112.019318 92.22098 
L 119.152841 98.663683 
L 126.286364 104.672045 
L 131.042045 108.436321 
L 135.797727 112.007557 
L 140.553409 115.385753 
L 145.309091 118.570909 
L 150.064773 121.563026 
L 154.820455 124.362102 
L 159.576136 126.968139 
L 164.331818 129.381136 
L 169.0875 131.601094 
L 173.843182 133.628011 
L 178.598864 135.461889 
L 183.354545 137.102727 
L 188.110227 138.550526 
L 192.865909 139.805284 
L 197.621591 140.867003 
L 202.377273 141.735682 
L 207.132955 142.411321 
L 211.888636 142.89392 
L 216.644318 143.18348 
L 221.4 143.28 
L 226.155682 143.18348 
L 230.911364 142.89392 
L 235.667045 142.411321 
L 240.422727 141.735682 
L 245.178409 140.867003 
L 249.934091 139.805284 
L 254.689773 138.550526 
L 259.445455 137.102727 
L 264.201136 135.461889 
L 268.956818 133.628011 
L 273.7125 131.601094 
L 278.468182 129.381136 
L 283.223864 126.968139 
L 287.979545 124.362102 
L 292.735227 121.563026 
L 297.490909 118.570909 
L 302.246591 115.385753 
L 307.002273 112.007557 
L 311.757955 108.436321 
L 316.513636 104.672045 
L 321.269318 100.71473 
L 328.402841 94.416808 
L 335.536364 87.684545 
L 342.669886 80.517944 
L 349.803409 72.917003 
L 356.936932 64.881722 
L 364.070455 56.412102 
L 371.203977 47.508143 
L 373.581818 44.443636 
L 373.581818 44.443636 
" style="fill:none;stroke:#9467bd;stroke-linecap:square;stroke-width:1.5;"/>
   </g>
   <g id="patch_3">
    <path d="M 54 252 
L 54 34.56 
" style="fill:none;stroke:#000000;stroke-linecap:square;stroke-linejoin:miter;stroke-width:0.8;"/>
   </g>
   <g id="patch_4">
    <path d="M 388.8 252 
L 388.8 34.56 
" style="fill:none;stroke:#000000;stroke-linecap:square;stroke-linejoin:miter;stroke-width:0.8;"/>
   </g>
   <g id="patch_5">
    <path d="M 54 252 
L 388.8 252 
" style="fill:none;stroke:#000000;stroke-linecap:square;stroke-linejoin:miter;stroke-width:0.8;"/>
   </g>
   <g id="patch_6">
    <path d="M 54 34.56 
L 388.8 34.56 
" style="fill:none;stroke:#000000;stroke-linecap:square;stroke-linejoin:miter;stroke-width:0.8;"/>
   </g>
   <g id="text_19">
    <!-- f(x) + (-2) -->
    <defs>
     <path d="M 37.109375 75.984375 
L 37.109375 68.5 
L 28.515625 68.5 
Q 23.6875 68.5 21.796875 66.546875 
Q 19.921875 64.59375 19.921875 59.515625 
L 19.921875 54.6875 
L 34.71875 54.6875 
L 34.71875 47.703125 
L 19.921875 47.703125 
L 19.921875 0 
L 10.890625 0 
L 10.890625 47.703125 
L 2.296875 47.703125 
L 2.296875 54.6875 
L 10.890625 54.6875 
L 10.890625 58.5 
Q 10.890625 67.625 15.140625 71.796875 
Q 19.390625 75.984375 28.609375 75.984375 
z
" id="DejaVuSans-102"/>
     <path d="M 31 75.875 
Q 24.46875 64.65625 21.28125 53.65625 
Q 18.109375 42.671875 18.109375 31.390625 
Q 18.109375 20.125 21.3125 9.0625 
Q 24.515625 -2 31 -13.1875 
L 23.1875 -13.1875 
Q 15.875 -1.703125 12.234375 9.375 
Q 8.59375 20.453125 8.59375 31.390625 
Q 8.59375 42.28125 12.203125 53.3125 
Q 15.828125 64.359375 23.1875 75.875 
z
" id="DejaVuSans-40"/>
     <path d="M 54.890625 54.6875 
L 35.109375 28.078125 
L 55.90625 0 
L 45.3125 0 
L 29.390625 21.484375 
L 13.484375 0 
L 2.875 0 
L 24.125 28.609375 
L 4.6875 54.6875 
L 15.28125 54.6875 
L 29.78125 35.203125 
L 44.28125 54.6875 
z
" id="DejaVuSans-120"/>
     <path d="M 8.015625 75.875 
L 15.828125 75.875 
Q 23.140625 64.359375 26.78125 53.3125 
Q 30.421875 42.28125 30.421875 31.390625 
Q 30.421875 20.453125 26.78125 9.375 
Q 23.140625 -1.703125 15.828125 -13.1875 
L 8.015625 -13.1875 
Q 14.5 -2 17.703125 9.0625 
Q 20.90625 20.125 20.90625 31.390625 
Q 20.90625 42.671875 17.703125 53.65625 
Q 14.5 64.65625 8.015625 75.875 
z
" id="DejaVuSans-41"/>
     <path id="DejaVuSans-32"/>
     <path d="M 46 62.703125 
L 46 35.5 
L 73.1875 35.5 
L 73.1875 27.203125 
L 46 27.203125 
L 46 0 
L 37.796875 0 
L 37.796875 27.203125 
L 10.59375 27.203125 
L 10.59375 35.5 
L 37.796875 35.5 
L 37.796875 62.703125 
z
" id="DejaVuSans-43"/>
     <path d="M 4.890625 31.390625 
L 31.203125 31.390625 
L 31.203125 23.390625 
L 4.890625 23.390625 
z
" id="DejaVuSans-45"/>
    </defs>
    <g transform="translate(196.524219 232.521193)scale(0.1 -0.1)">
     <use xlink:href="#DejaVuSans-102"/>
     <use x="35.205078" xlink:href="#DejaVuSans-40"/>
     <use x="74.21875" xlink:href="#DejaVuSans-120"/>
     <use x="133.398438" xlink:href="#DejaVuSans-41"/>
     <use x="172.412109" xlink:href="#DejaVuSans-32"/>
     <use x="204.199219" xlink:href="#DejaVuSans-43"/>
     <use x="287.988281" xlink:href="#DejaVuSans-32"/>
     <use x="319.775391" xlink:href="#DejaVuSans-40"/>
     <use x="358.789062" xlink:href="#DejaVuSans-45"/>
     <use x="394.873047" xlink:href="#DejaVuSans-50"/>
     <use x="458.496094" xlink:href="#DejaVuSans-41"/>
    </g>
   </g>
   <g id="text_20">
    <!-- f(x) + (-1) -->
    <g transform="translate(196.524219 207.812102)scale(0.1 -0.1)">
     <use xlink:href="#DejaVuSans-102"/>
     <use x="35.205078" xlink:href="#DejaVuSans-40"/>
     <use x="74.21875" xlink:href="#DejaVuSans-120"/>
     <use x="133.398438" xlink:href="#DejaVuSans-41"/>
     <use x="172.412109" xlink:href="#DejaVuSans-32"/>
     <use x="204.199219" xlink:href="#DejaVuSans-43"/>
     <use x="287.988281" xlink:href="#DejaVuSans-32"/>
     <use x="319.775391" xlink:href="#DejaVuSans-40"/>
     <use x="358.789062" xlink:href="#DejaVuSans-45"/>
     <use x="394.873047" xlink:href="#DejaVuSans-49"/>
     <use x="458.496094" xlink:href="#DejaVuSans-41"/>
    </g>
   </g>
   <g id="text_21">
    <!-- f(x) + (0) -->
    <g transform="translate(198.328125 183.103011)scale(0.1 -0.1)">
     <use xlink:href="#DejaVuSans-102"/>
     <use x="35.205078" xlink:href="#DejaVuSans-40"/>
     <use x="74.21875" xlink:href="#DejaVuSans-120"/>
     <use x="133.398438" xlink:href="#DejaVuSans-41"/>
     <use x="172.412109" xlink:href="#DejaVuSans-32"/>
     <use x="204.199219" xlink:href="#DejaVuSans-43"/>
     <use x="287.988281" xlink:href="#DejaVuSans-32"/>
     <use x="319.775391" xlink:href="#DejaVuSans-40"/>
     <use x="358.789062" xlink:href="#DejaVuSans-48"/>
     <use x="422.412109" xlink:href="#DejaVuSans-41"/>
    </g>
   </g>
   <g id="text_22">
    <!-- f(x) + (1) -->
    <g transform="translate(198.328125 158.39392)scale(0.1 -0.1)">
     <use xlink:href="#DejaVuSans-102"/>
     <use x="35.205078" xlink:href="#DejaVuSans-40"/>
     <use x="74.21875" xlink:href="#DejaVuSans-120"/>
     <use x="133.398438" xlink:href="#DejaVuSans-41"/>
     <use x="172.412109" xlink:href="#DejaVuSans-32"/>
     <use x="204.199219" xlink:href="#DejaVuSans-43"/>
     <use x="287.988281" xlink:href="#DejaVuSans-32"/>
     <use x="319.775391" xlink:href="#DejaVuSans-40"/>
     <use x="358.789062" xlink:href="#DejaVuSans-49"/>
     <use x="422.412109" xlink:href="#DejaVuSans-41"/>
    </g>
   </g>
   <g id="text_23">
    <!-- f(x) + (2) -->
    <g transform="translate(198.328125 133.68483)scale(0.1 -0.1)">
     <use xlink:href="#DejaVuSans-102"/>
     <use x="35.205078" xlink:href="#DejaVuSans-40"/>
     <use x="74.21875" xlink:href="#DejaVuSans-120"/>
     <use x="133.398438" xlink:href="#DejaVuSans-41"/>
     <use x="172.412109" xlink:href="#DejaVuSans-32"/>
     <use x="204.199219" xlink:href="#DejaVuSans-43"/>
     <use x="287.988281" xlink:href="#DejaVuSans-32"/>
     <use x="319.775391" xlink:href="#DejaVuSans-40"/>
     <use x="358.789062" xlink:href="#DejaVuSans-50"/>
     <use x="422.412109" xlink:href="#DejaVuSans-41"/>
    </g>
   </g>
  </g>
 </g>
 <defs>
  <clipPath id="p6b7e537b38">
   <rect height="217.44" width="334.8" x="54" y="34.56"/>
  </clipPath>
 </defs>
</svg>
